# xmcd
#
# Track frame offsets: 
#        150
#        12460
#        25535
#        38030
#        52601
#        66726
#        79268
#        92396
#        105552
#        118856
#        131065
#        143524
#        155145
#        167947
#        178486
#        189773
#        203884
#        214696
#        225425
#        237442
#
# Disc length: 3299 seconds
#
# Revision: 0
# Processed by: cddbd v1.5.2PL0 Copyright (c) Steve Scherf et al.
# Submitted via: ExactAudioCopy v1.0b3
#
DISCID=100ce114
DTITLE=Various Artist - Wilko Johnson Presents: The First Time I Met 
DTITLE=The Blues - Chess Masters
DYEAR=2016
DGENRE=Blues
TTITLE0=Muddy Waters - I Can't Be Satisfied
TTITLE1=Muddy Waters - Louisiana Blues
TTITLE2=Little Walter - Juke
TTITLE3=John Lee Hooker - Sugar Mama
TTITLE4=Little Walter - Blues With A Feeling
TTITLE5=Muddy Waters - I'm Your Hoochie Coochie Man
TTITLE6=Muddy Waters - Just Make Love To Me
TTITLE7=Little Walter - Last Night
TTITLE8=Muddy Waters - Mannish Boy
TTITLE9=Little Walter - My Babe
TTITLE10=Bo Diddley - Bo Diddley
TTITLE11=Sonny Boy Williamson - Don't Start Me Talkin'
TTITLE12=Bo Diddley - Pretty Thing
TTITLE13=Chuck Berry - Maybellene
TTITLE14=Bo Diddley - Who Do You Love
TTITLE15=Howlin' Wolf - Smokestack Lightning
TTITLE16=Chuck Berry - Roll Over Beethoven
TTITLE17=Bo Diddley - Mona
TTITLE18=Chuck Berry - Johnny B. Goode
TTITLE19=Chuck Berry - Memphis, Tennessee
EXTD=
EXTT0=
EXTT1=
EXTT2=
EXTT3=
EXTT4=
EXTT5=
EXTT6=
EXTT7=
EXTT8=
EXTT9=
EXTT10=
EXTT11=
EXTT12=
EXTT13=
EXTT14=
EXTT15=
EXTT16=
EXTT17=
EXTT18=
EXTT19=
PLAYORDER=
